<svg width="977" height="213" viewBox="0 0 977 213" fill="none" xmlns="http://www.w3.org/2000/svg">
<path d="M245.586 62.6875L267.5 124.562L289.297 62.6875H312.383V148H294.746V124.68L296.504 84.4258L273.477 148H261.406L238.438 84.4844L240.195 124.68V148H222.617V62.6875H245.586ZM349.801 149.172C340.504 149.172 332.926 146.32 327.066 140.617C321.246 134.914 318.336 127.316 318.336 117.824V116.184C318.336 109.816 319.566 104.133 322.027 99.1328C324.488 94.0938 327.965 90.2266 332.457 87.5312C336.988 84.7969 342.145 83.4297 347.926 83.4297C356.598 83.4297 363.414 86.1641 368.375 91.6328C373.375 97.1016 375.875 104.855 375.875 114.895V121.809H335.504C336.051 125.949 337.691 129.27 340.426 131.77C343.199 134.27 346.695 135.52 350.914 135.52C357.438 135.52 362.535 133.156 366.207 128.43L374.527 137.746C371.988 141.34 368.551 144.152 364.215 146.184C359.879 148.176 355.074 149.172 349.801 149.172ZM347.867 97.1406C344.508 97.1406 341.773 98.2734 339.664 100.539C337.594 102.805 336.266 106.047 335.68 110.266H359.234V108.918C359.156 105.168 358.141 102.277 356.188 100.246C354.234 98.1758 351.461 97.1406 347.867 97.1406ZM397.414 148H380.422V58H397.414V148ZM442.156 148C441.375 146.477 440.809 144.582 440.457 142.316C436.355 146.887 431.023 149.172 424.461 149.172C418.25 149.172 413.094 147.375 408.992 143.781C404.93 140.188 402.898 135.656 402.898 130.188C402.898 123.469 405.379 118.312 410.34 114.719C415.34 111.125 422.547 109.309 431.961 109.27H439.754V105.637C439.754 102.707 438.992 100.363 437.469 98.6055C435.984 96.8477 433.621 95.9688 430.379 95.9688C427.527 95.9688 425.281 96.6523 423.641 98.0195C422.039 99.3867 421.238 101.262 421.238 103.645H404.305C404.305 99.9727 405.438 96.5742 407.703 93.4492C409.969 90.3242 413.172 87.8828 417.312 86.125C421.453 84.3281 426.102 83.4297 431.258 83.4297C439.07 83.4297 445.262 85.4023 449.832 89.3477C454.441 93.2539 456.746 98.7617 456.746 105.871V133.352C456.785 139.367 457.625 143.918 459.266 147.004V148H442.156ZM428.152 136.223C430.652 136.223 432.957 135.676 435.066 134.582C437.176 133.449 438.738 131.945 439.754 130.07V119.172H433.426C424.949 119.172 420.438 122.102 419.891 127.961L419.832 128.957C419.832 131.066 420.574 132.805 422.059 134.172C423.543 135.539 425.574 136.223 428.152 136.223ZM484.027 69.0156V84.6016H494.867V97.0234H484.027V128.664C484.027 131.008 484.477 132.688 485.375 133.703C486.273 134.719 487.992 135.227 490.531 135.227C492.406 135.227 494.066 135.09 495.512 134.816V147.648C492.191 148.664 488.773 149.172 485.258 149.172C473.383 149.172 467.328 143.176 467.094 131.184V97.0234H457.836V84.6016H467.094V69.0156H484.027ZM516.172 148H499.18V84.6016H516.172V148ZM498.184 68.1953C498.184 65.6562 499.023 63.5664 500.703 61.9258C502.422 60.2852 504.746 59.4648 507.676 59.4648C510.566 59.4648 512.871 60.2852 514.59 61.9258C516.309 63.5664 517.168 65.6562 517.168 68.1953C517.168 70.7734 516.289 72.8828 514.531 74.5234C512.812 76.1641 510.527 76.9844 507.676 76.9844C504.824 76.9844 502.52 76.1641 500.762 74.5234C499.043 72.8828 498.184 70.7734 498.184 68.1953ZM615.617 123.391L627.102 62.6875H644.621L625.695 148H608L594.113 90.9297L580.227 148H562.531L543.605 62.6875H561.125L572.668 123.273L586.73 62.6875H601.613L615.617 123.391ZM674.363 149.172C665.066 149.172 657.488 146.32 651.629 140.617C645.809 134.914 642.898 127.316 642.898 117.824V116.184C642.898 109.816 644.129 104.133 646.59 99.1328C649.051 94.0938 652.527 90.2266 657.02 87.5312C661.551 84.7969 666.707 83.4297 672.488 83.4297C681.16 83.4297 687.977 86.1641 692.938 91.6328C697.938 97.1016 700.438 104.855 700.438 114.895V121.809H660.066C660.613 125.949 662.254 129.27 664.988 131.77C667.762 134.27 671.258 135.52 675.477 135.52C682 135.52 687.098 133.156 690.77 128.43L699.09 137.746C696.551 141.34 693.113 144.152 688.777 146.184C684.441 148.176 679.637 149.172 674.363 149.172ZM672.43 97.1406C669.07 97.1406 666.336 98.2734 664.227 100.539C662.156 102.805 660.828 106.047 660.242 110.266H683.797V108.918C683.719 105.168 682.703 102.277 680.75 100.246C678.797 98.1758 676.023 97.1406 672.43 97.1406ZM701.469 115.832C701.469 105.949 703.676 98.0781 708.09 92.2188C712.543 86.3594 718.617 83.4297 726.312 83.4297C732.484 83.4297 737.582 85.7344 741.605 90.3438V58H758.598V148H743.305L742.484 141.262C738.266 146.535 732.836 149.172 726.195 149.172C718.734 149.172 712.738 146.242 708.207 140.383C703.715 134.484 701.469 126.301 701.469 115.832ZM718.402 117.062C718.402 123 719.438 127.551 721.508 130.715C723.578 133.879 726.586 135.461 730.531 135.461C735.766 135.461 739.457 133.254 741.605 128.84V103.82C739.496 99.4062 735.844 97.1992 730.648 97.1992C722.484 97.1992 718.402 103.82 718.402 117.062ZM763.086 115.832C763.086 105.949 765.293 98.0781 769.707 92.2188C774.16 86.3594 780.234 83.4297 787.93 83.4297C794.102 83.4297 799.199 85.7344 803.223 90.3438V58H820.215V148H804.922L804.102 141.262C799.883 146.535 794.453 149.172 787.812 149.172C780.352 149.172 774.355 146.242 769.824 140.383C765.332 134.484 763.086 126.301 763.086 115.832ZM780.02 117.062C780.02 123 781.055 127.551 783.125 130.715C785.195 133.879 788.203 135.461 792.148 135.461C797.383 135.461 801.074 133.254 803.223 128.84V103.82C801.113 99.4062 797.461 97.1992 792.266 97.1992C784.102 97.1992 780.02 103.82 780.02 117.062ZM845.211 148H828.219V84.6016H845.211V148ZM827.223 68.1953C827.223 65.6562 828.062 63.5664 829.742 61.9258C831.461 60.2852 833.785 59.4648 836.715 59.4648C839.605 59.4648 841.91 60.2852 843.629 61.9258C845.348 63.5664 846.207 65.6562 846.207 68.1953C846.207 70.7734 845.328 72.8828 843.57 74.5234C841.852 76.1641 839.566 76.9844 836.715 76.9844C833.863 76.9844 831.559 76.1641 829.801 74.5234C828.082 72.8828 827.223 70.7734 827.223 68.1953ZM868.801 84.6016L869.328 91.9258C873.859 86.2617 879.934 83.4297 887.551 83.4297C894.27 83.4297 899.27 85.4023 902.551 89.3477C905.832 93.293 907.512 99.1914 907.59 107.043V148H890.656V107.453C890.656 103.859 889.875 101.262 888.312 99.6602C886.75 98.0195 884.152 97.1992 880.52 97.1992C875.754 97.1992 872.18 99.2305 869.797 103.293V148H852.863V84.6016H868.801ZM912.02 115.832C912.02 106.105 914.324 98.2734 918.934 92.3359C923.582 86.3984 929.832 83.4297 937.684 83.4297C944.637 83.4297 950.047 85.8125 953.914 90.5781L954.617 84.6016H969.969V145.891C969.969 151.438 968.699 156.262 966.16 160.363C963.66 164.465 960.125 167.59 955.555 169.738C950.984 171.887 945.633 172.961 939.5 172.961C934.852 172.961 930.32 172.023 925.906 170.148C921.492 168.312 918.152 165.93 915.887 163L923.387 152.688C927.605 157.414 932.723 159.777 938.738 159.777C943.23 159.777 946.727 158.566 949.227 156.145C951.727 153.762 952.977 150.363 952.977 145.949V142.551C949.07 146.965 943.934 149.172 937.566 149.172C929.949 149.172 923.777 146.203 919.051 140.266C914.363 134.289 912.02 126.379 912.02 116.535V115.832ZM928.953 117.062C928.953 122.805 930.105 127.316 932.41 130.598C934.715 133.84 937.879 135.461 941.902 135.461C947.059 135.461 950.75 133.527 952.977 129.66V103C950.711 99.1328 947.059 97.1992 942.02 97.1992C937.957 97.1992 934.754 98.8594 932.41 102.18C930.105 105.5 928.953 110.461 928.953 117.062Z" fill="#FFC700"/>
<path d="M104.777 71.3119C115.015 61.542 129.348 35.2017 104.777 8C80.2059 35.2017 94.5389 61.542 104.777 71.3119ZM104.777 71.3119C100.901 75.0104 96.4386 81.0836 93.722 88.6791C84.7448 113.779 124.809 113.779 115.832 88.6791C113.115 81.0836 108.652 75.0104 104.777 71.3119Z" stroke="#FFC700" stroke-width="10"/>
<path d="M81.4021 81.8799C81.486 67.7286 72.4949 39.1209 35.8593 37.8997C38.3582 74.4704 67.2624 82.4576 81.4021 81.8799ZM81.4021 81.8799C81.3703 87.237 82.639 94.6658 86.2157 101.896C98.0348 125.79 125.866 96.97 101.574 85.992C94.2234 82.6699 86.7548 81.6612 81.4021 81.8799Z" stroke="#FFC700" stroke-width="10"/>
<path d="M129.899 81.0316C144.039 81.6105 172.944 73.6255 175.446 37.0549C138.81 38.2733 129.817 66.8804 129.899 81.0316ZM129.899 81.0316C124.547 80.8125 117.078 81.8207 109.727 85.1423C85.4348 96.1184 113.263 124.94 125.084 101.048C128.661 93.8175 129.931 86.3887 129.899 81.0316Z" stroke="#FFC700" stroke-width="10"/>
<path d="M79.9934 127.152C65.889 125.999 36.6834 132.801 32.696 169.24C69.3509 169.513 79.5005 141.295 79.9934 127.152ZM79.9934 127.152C85.3328 127.589 92.8363 126.885 100.317 123.866C125.035 113.887 98.402 83.9569 85.6189 107.349C81.7505 114.427 80.18 121.798 79.9934 127.152Z" stroke="#FFC700" stroke-width="10"/>
<path d="M133.41 127.26C134.926 141.33 147.09 168.739 183.63 165.815C177.016 129.76 147.394 125.089 133.41 127.26ZM133.41 127.26C132.837 121.934 130.737 114.696 126.367 107.916C111.924 85.5102 87.5271 117.289 112.903 125.453C120.582 127.923 128.117 128.082 133.41 127.26Z" stroke="#FFC700" stroke-width="10"/>
<path d="M71.3119 104.777C61.542 94.5389 35.2017 80.2059 8 104.777C35.2017 129.348 61.542 115.015 71.3119 104.777ZM71.3119 104.777C75.0104 108.652 81.0836 113.115 88.6791 115.832C113.779 124.809 113.779 84.7448 88.6791 93.722C81.0836 96.4386 75.0104 100.901 71.3119 104.777Z" stroke="#FFC700" stroke-width="10"/>
<path d="M106.272 141.56C96.2683 151.57 82.5629 178.242 107.771 204.854C131.691 177.078 116.738 151.085 106.272 141.56ZM106.272 141.56C110.059 137.771 114.376 131.594 116.912 123.936C125.293 98.6307 85.2401 99.5793 94.8091 124.459C97.7048 131.988 102.31 137.954 106.272 141.56Z" stroke="#FFC700" stroke-width="10"/>
<path d="M140.688 104.939C150.458 115.177 176.798 129.51 204 104.939C176.798 80.3682 150.458 94.7012 140.688 104.939ZM140.688 104.939C136.99 101.063 130.916 96.6009 123.321 93.8842C98.2213 84.9071 98.2213 124.971 123.321 115.994C130.916 113.277 136.99 108.815 140.688 104.939Z" stroke="#FFC700" stroke-width="10"/>
<circle cx="105.681" cy="105.078" r="16.7069" stroke="black" stroke-opacity="0.73" stroke-width="10"/>
</svg>
